<svg id="logo-seventh-color" xmlns="http://www.w3.org/2000/svg" width="180" height="80.21" viewBox="0 0 180 80.21">
  <path id="Caminho_1" data-name="Caminho 1" d="M562.7,211.019l2.87-30.454L574.8,179.4l-.893,9.529h6.118c7.065,0,10.531,1.029,10.341,3.059l-1.787,19.058h-9.123l1.787-18.922c.054-.541-1.029-.839-3.194-.839h-4.331l-1.868,19.734Z" transform="translate(-410.374 -130.835)" fill="#b5a234" fill-rule="evenodd"/>
  <path id="Caminho_2" data-name="Caminho 2" d="M503.225,202.472c-.19,2,.054,3.357.7,4.034s1.949,1,3.871,1a5.078,5.078,0,0,0,.568-.027,5.255,5.255,0,0,1,.6-.027l-.325,3.492h-12.4c-1.435-1.218-2.03-3.276-1.76-6.172l1.11-11.884H490.8l.433-4.548h4.792l.731-7.85,8.635-1.191-.839,9.042h5.983l-.433,4.548h-5.983Z" transform="translate(-357.937 -130.762)" fill="#b5a234"/>
  <path id="Caminho_3" data-name="Caminho 3" d="M391.1,234.418l1.868-19.789c3.519-2.057,8.094-3.221,14.239-3.14,6.5,0,9.637,1.056,9.448,3.167l-1.868,19.762h-8.338l1.841-19.653c.054-.568-.92-.866-2.924-.866h-3.979l-1.949,20.492H391.1Z" transform="translate(-285.227 -154.235)" fill="#2a4c85" fill-rule="evenodd"/>
  <path id="Caminho_4" data-name="Caminho 4" d="M216.316,234.429,209.9,211.5h8.717l3.411,14.7,6.172-14.7h8.69l-10.747,22.929Z" transform="translate(-153.079 -154.246)" fill="#2a4c85" fill-rule="evenodd"/>
  <path id="Caminho_5" data-name="Caminho 5" d="M321.793,221.693l-16.459,2.355c-1.11,6.5,4.467,10.422,12.019,7.661a13.932,13.932,0,0,0,3.519-1.922l-.217,2.112a11.085,11.085,0,0,1-3.059,2.3h-16.4a10.569,10.569,0,0,1-1.705-1.381c-2.193-2.193-3.086-5.116-2.761-8.69a13.468,13.468,0,0,1,4.737-9.258c7.174-6.226,21.521-4.954,20.33,6.822Zm-9.1-2.111a3.9,3.9,0,0,0,1.218-.217,1.025,1.025,0,0,0,.352-.785c.514-5.5-7.9-4.764-8.527,1.624a1.058,1.058,0,0,0,0,.325Z" transform="translate(-216.353 -154.017)" fill="#2a4c85"/>
  <path id="Caminho_6" data-name="Caminho 6" d="M145.116,221.945l-16.4,2.328c-1.11,6.47,4.44,10.4,11.965,7.661a13.772,13.772,0,0,0,3.492-1.922l-.217,2.111a10.738,10.738,0,0,1-3.032,2.274H124.543a10.567,10.567,0,0,1-1.705-1.381,10.276,10.276,0,0,1-2.734-8.663,13.463,13.463,0,0,1,4.737-9.231c7.147-6.2,21.44-4.927,20.276,6.822Zm-9.1-2.111a3.517,3.517,0,0,0,1.191-.217,1.025,1.025,0,0,0,.352-.785c.514-5.468-7.878-4.737-8.5,1.624a1.123,1.123,0,0,0,0,.325Z" transform="translate(-87.537 -154.214)" fill="#2a4c85"/>
  <path id="Caminho_7" data-name="Caminho 7" d="M31.023,195.665l-3.492.514a5.8,5.8,0,0,0-2.978-4.494c-2.707-1.733-7.336-2.572-10.882-.758-1.895.947-2.22,3.059-.866,4.169C18.9,199.915,33,199.7,31.646,208.6c-.6,3.925-3.113,6.578-6.5,8.175H5.2c-.568-.244-1.137-.487-1.678-.758v.027A17.669,17.669,0,0,1,0,213.829c1.272-1.814,2.572-3.627,3.844-5.468h.244c1.11,4.3,5.712,7.607,11.695,7.607,4.819,0,9.935-4.25,5.658-7.065-6.145-4.061-19.085-4.629-17.84-12.8a8.545,8.545,0,0,1,5.062-6.578,21.031,21.031,0,0,1,9.556-2.22c6.686,0,13.21,2.572,12.8,8.365Z" transform="translate(0 -136.597)" fill="#2a4c85"/>
  <path id="Caminho_8" data-name="Caminho 8" d="M413.7,61.147l7.553-.947-5.6.7,3.79,4.088,5.712-.975,1.489,1.462-7.661,1.435Z" transform="translate(-301.709 -43.903)" fill="#b9b057" fill-rule="evenodd"/>
  <path id="Caminho_9" data-name="Caminho 9" d="M415.232,76.829l-1.056-1.3,1.976-5.956-3.952-4.44.406-1.435,5.279,5.766Z" transform="translate(-300.615 -46.456)" fill="#c2d7e7" fill-rule="evenodd"/>
  <path id="Caminho_10" data-name="Caminho 10" d="M354.3,61.98,342.5,42.9l3.573-22.5,10.043,11.8-2.139,8.284,4.9,6.578Zm5.387-17.623" transform="translate(-249.783 -14.878)" fill="#7383b1" fill-rule="evenodd"/>
  <path id="Caminho_11" data-name="Caminho 11" d="M426.053,81.135l7.661-1.435-2.22,5.279,1.57-3.736-5.793,1.191-2.03,5.631L423.4,88.5Z" transform="translate(-308.783 -58.125)" fill="#8baec5" fill-rule="evenodd"/>
  <path id="Caminho_12" data-name="Caminho 12" d="M424.442,86.152,447.614,80.9l-11.18,19.68L415.4,108.729l9.042-22.577,7.742-1.76L428.8,91.864l-7.5,2.166Z" transform="translate(-302.949 -59)" fill="#7383b1" fill-rule="evenodd"/>
  <path id="Caminho_13" data-name="Caminho 13" d="M426.177,83.018l12.4-2.518-1.651,3.6-7.742,1.76-3.14,7.878L421.9,94.956Z" transform="translate(-307.689 -58.708)" fill="#5f84b6" fill-rule="evenodd"/>
  <path id="Caminho_14" data-name="Caminho 14" d="M432.23,86.591l5.793-1.191-1.57,3.736-.812,1.733-1.11.325,1.191-.271-5.522,1.3Z" transform="translate(-313.742 -62.282)" fill="#6f98cb" fill-rule="evenodd"/>
  <path id="Caminho_15" data-name="Caminho 15" d="M379.5.162l11.018,11.153,7.5-.677,6.064,5.5,15.728-2.328L402.131,0Z" transform="translate(-276.767)" fill="#bfb666" fill-rule="evenodd"/>
  <path id="Caminho_16" data-name="Caminho 16" d="M409.8,79.4l-3.6-4.44,1.029,1.245.6-2.328-1-1.191,1-3.682,3.952,4.44Z" transform="translate(-296.239 -50.321)" fill="#8cacc5" fill-rule="evenodd"/>
  <path id="Caminho_17" data-name="Caminho 17" d="M392.109,72.6,384.8,62.776l2.139-8.284,4.25,5.008,1-3.655,3.952,4.413L387.859,51,384.8,62.8l4.9,6.578,1.922-6.28-1.029-1.272,3.6,4.44Zm-.893-13.048Z" transform="translate(-280.632 -37.194)" fill="#5f84b6" fill-rule="evenodd"/>
  <path id="Caminho_18" data-name="Caminho 18" d="M389.7,78.862l-4.9-6.578L386.966,64l4.25,5.035,1,1.191-.6,2.355Z" transform="translate(-280.632 -46.675)" fill="#4a6097" fill-rule="evenodd"/>
  <path id="Caminho_19" data-name="Caminho 19" d="M448.082,93.8l-3.384,7.471-7.5,2.166,3.14-7.878,1.218-.3-1.218.271-.7,1.787.7-1.76Z" transform="translate(-318.847 -68.408)" fill="#4a6097" fill-rule="evenodd"/>
  <path id="Caminho_20" data-name="Caminho 20" d="M417.935,43.633l6.5,5.847-12.723,2.166h0L403.1,42.333l4.656-.433h0l5.712,5.793,7.85-.975-.65-.6-.244-.244-2.463-2.22h0Z" transform="translate(-293.978 -30.557)" fill="#c3bb73" fill-rule="evenodd"/>
  <path id="Caminho_21" data-name="Caminho 21" d="M419.8,60.385l5.793-.785,3.952,3.925-5.658,1.137Z" transform="translate(-306.157 -43.466)" fill="#b3ac51" fill-rule="evenodd"/>
  <path id="Caminho_22" data-name="Caminho 22" d="M420.1,39.977l7.526-.677,6.091,5.522-7.661,1.164Z" transform="translate(-306.376 -28.661)" fill="#b5a234" fill-rule="evenodd"/>
</svg>
